REM DIRINDEX 1\2,1\4,1\3\5,1\3\6,1\3\7
REM DIRNAME cjc081,folder01,folder02,folder03,folder04,folder05,folder06
TITLE ""
FILE "CD2Track26.mp3" MP3
  TRACK 01 AUDIO
    TITLE "0:"
    INDEX 01 00:00:00
  TRACK 02 AUDIO
    TITLE "5:cjc081_1622"
    INDEX 01 00:00:23
  TRACK 03 AUDIO
    TITLE "0:"
    INDEX 01 00:01:34
  TRACK 04 AUDIO
    TITLE "6:cjc081_1623"
    INDEX 01 00:02:04
  TRACK 05 AUDIO
    TITLE "0:"
    INDEX 01 00:03:66
  TRACK 06 AUDIO
    TITLE "5:cjc081_1624"
    INDEX 01 00:04:33
  TRACK 07 AUDIO
    TITLE "0:"
    INDEX 01 00:05:46
  TRACK 08 AUDIO
    TITLE "6:cjc081_1625"
    INDEX 01 00:06:20
  TRACK 09 AUDIO
    TITLE "0:"
    INDEX 01 00:09:45
  TRACK 10 AUDIO
    TITLE "5:cjc081_1626"
    INDEX 01 00:10:14
  TRACK 11 AUDIO
    TITLE "0:"
    INDEX 01 00:11:31
  TRACK 12 AUDIO
    TITLE "6:cjc081_1627"
    INDEX 01 00:12:01
  TRACK 13 AUDIO
    TITLE "0:"
    INDEX 01 00:13:26
  TRACK 14 AUDIO
    TITLE "5:cjc081_1628"
    INDEX 01 00:13:71
  TRACK 15 AUDIO
    TITLE "0:"
    INDEX 01 00:15:11
  TRACK 16 AUDIO
    TITLE "6:cjc081_1629"
    INDEX 01 00:15:54
  TRACK 17 AUDIO
    TITLE "0:"
    INDEX 01 00:17:65
  TRACK 18 AUDIO
    TITLE "5:cjc081_1630"
    INDEX 01 00:18:37
  TRACK 19 AUDIO
    TITLE "0:"
    INDEX 01 00:19:38
  TRACK 20 AUDIO
    TITLE "6:cjc081_1631"
    INDEX 01 00:20:14
  TRACK 21 AUDIO
    TITLE "0:"
    INDEX 01 00:21:47
  TRACK 22 AUDIO
    TITLE "5:cjc081_1632"
    INDEX 01 00:22:21
  TRACK 23 AUDIO
    TITLE "0:"
    INDEX 01 00:23:38
  TRACK 24 AUDIO
    TITLE "6:cjc081_1633"
    INDEX 01 00:24:12
  TRACK 25 AUDIO
    TITLE "0:"
    INDEX 01 00:26:30
  TRACK 26 AUDIO
    TITLE "5:cjc081_1634"
    INDEX 01 00:26:73
  TRACK 27 AUDIO
    TITLE "0:"
    INDEX 01 00:28:17
  TRACK 28 AUDIO
    TITLE "6:cjc081_1635"
    INDEX 01 00:28:62
  TRACK 29 AUDIO
    TITLE "0:"
    INDEX 01 00:32:66
  TRACK 30 AUDIO
    TITLE "5:cjc081_1636"
    INDEX 01 00:33:36
  TRACK 31 AUDIO
    TITLE "0:"
    INDEX 01 00:35:68
  TRACK 32 AUDIO
    TITLE "6:cjc081_1637"
    INDEX 01 00:36:38
  TRACK 33 AUDIO
    TITLE "0:"
    INDEX 01 00:39:05
  TRACK 34 AUDIO
    TITLE "5:cjc081_1638"
    INDEX 01 00:39:51
  TRACK 35 AUDIO
    TITLE "0:"
    INDEX 01 00:41:02
  TRACK 36 AUDIO
    TITLE "6:cjc081_1639"
    INDEX 01 00:41:47
  TRACK 37 AUDIO
    TITLE "0:"
    INDEX 01 00:42:49
  TRACK 38 AUDIO
    TITLE "5:cjc081_1640"
    INDEX 01 00:43:21
  TRACK 39 AUDIO
    TITLE "0:"
    INDEX 01 00:44:44
  TRACK 40 AUDIO
    TITLE "6:cjc081_1641"
    INDEX 01 00:45:20
  TRACK 41 AUDIO
    TITLE "0:"
    INDEX 01 00:49:12
  TRACK 42 AUDIO
    TITLE "5:cjc081_1642"
    INDEX 01 00:49:53
  TRACK 43 AUDIO
    TITLE "0:"
    INDEX 01 00:50:68
  TRACK 44 AUDIO
    TITLE "6:cjc081_1643"
    INDEX 01 00:51:38
  TRACK 45 AUDIO
    TITLE "0:"
    INDEX 01 00:53:35
  TRACK 46 AUDIO
    TITLE "5:cjc081_1644"
    INDEX 01 00:54:07
  TRACK 47 AUDIO
    TITLE "0:"
    INDEX 01 00:55:34
  TRACK 48 AUDIO
    TITLE "6:cjc081_1645"
    INDEX 01 00:56:06
  TRACK 49 AUDIO
    TITLE "0:"
    INDEX 01 00:57:66
  TRACK 50 AUDIO
    TITLE "5:cjc081_1646"
    INDEX 01 00:58:34
  TRACK 51 AUDIO
    TITLE "0:"
    INDEX 01 00:59:61
  TRACK 52 AUDIO
    TITLE "6:cjc081_1647"
    INDEX 01 01:00:33
  TRACK 53 AUDIO
    TITLE "0:"
    INDEX 01 01:01:42
  TRACK 54 AUDIO
    TITLE "5:cjc081_1648"
    INDEX 01 01:02:12
  TRACK 55 AUDIO
    TITLE "0:"
    INDEX 01 01:03:39
  TRACK 56 AUDIO
    TITLE "6:cjc081_1649"
    INDEX 01 01:04:13
  TRACK 57 AUDIO
    TITLE "0:"
    INDEX 01 01:05:40
  TRACK 58 AUDIO
    TITLE "5:cjc081_1650"
    INDEX 01 01:06:10
  TRACK 59 AUDIO
    TITLE "0:"
    INDEX 01 01:07:45
  TRACK 60 AUDIO
    TITLE "6:cjc081_1651"
    INDEX 01 01:08:17
  TRACK 61 AUDIO
    TITLE "0:"
    INDEX 01 01:09:63
  TRACK 62 AUDIO
    TITLE "7:cjc081_1652"
    INDEX 01 01:11:27
  TRACK 63 AUDIO
    TITLE "0:"
    INDEX 01 01:21:61
